PathFileType	4	(X/Y/Z)	C:/Users/beibeiliu/ov580/test_trc/capture2\sequence.21_training_dense_left.trc
DataRate	CameraRate	NumFrames	NumMarkers	Units	OrigDataRate	OrigDataStartFrame	OrigNumFrames
120	120	24	19	mm	120	45	355
Frame#	Time	ThumbCMC			ThumbMCP			ThumbIP			ThumbTip			IndexMCP			IndexPIP			IndexTip			MiddleMCP			MiddlePIP			MiddleTip			RingMCP			RingPIP			RingTip			PinkyMCP			PinkyPIP			PinkyTip			BackHand1			BackHand2			BackHand3	
		X0	Y0	Z0	X1	Y1	Z1	X2	Y2	Z2	X3	Y3	Z3	X4	Y4	Z4	X5	Y5	Z5	X6	Y6	Z6	X7	Y7	Z7	X8	Y8	Z8	X9	Y9	Z9	X10	Y10	Z10	X11	Y11	Z11	X12	Y12	Z12	X13	Y13	Z13	X14	Y14	Z14	X15	Y15	Z15	X16	Y16	Z16	X17	Y17	Z17	X18	Y18	Z18	
44	0.366667	-105.421	69.7202	26.6383	-92.9281	59.1532	-5.92848	-83.6369	64.2132	-34.9888	-84.5802	70.209	-55.0568	-95.2537	120.145	-23.7892	-88.8309	117.697	-47.8714	-87.7859	111.263	-76.4224	-115.057	110.226	-32.5566	-112.217	80.3165	-43.9659	-115.231	69.4253	-7.05989	-133.108	97.4697	-38.5541	-127.854	69.9354	-34.4301	-131.98	71.2841	1.9675	-150.131	95.8185	-31.8374	-140.61	66.4333	-22.1588	-138.018	76.3981	8.61797	-151.184	110.941	16.5312	-155.462	93.2961	41.8186	-121.59	103.571	37.1584	
45	0.375	-98.2841	72.0599	27.0107	-89.4704	63.2059	-5.85938	-84.1297	65.3427	-29.1728	-79.404	69.2752	-49.9026	-89.8842	123.283	-21.7654	-82.5431	119.189	-47.6169	-82.2399	114.056	-73.1213	-110.015	111.64	-32.7368	-110.229	79.977	-38.6547	-112.106	71.0935	-5.34958	-125.94	104.014	-32.9616	-122.768	74.4897	-31.9304	-126.261	75.5435	5.5988	-144.293	95.8958	-31.3831	-138.454	69.5842	-20.8786	-135.477	75.1181	9.66153	-149.722	113.768	19.8155	-151.17	95.9994	47.8351	-118.245	103.702	41.0129	
46	0.383333	-91.6034	75.4142	28.2737	-84.1135	62.8818	-2.09833	-78.8253	66.8785	-26.9959	-78.2029	74.1845	-51.507	-85.7056	125.592	-17.8658	-81.3752	123.155	-42.6011	-83.1257	117.291	-70.4206	-104.323	115.06	-29.4858	-103.346	81.8745	-35.9573	-109.097	73.5023	-2.97225	-128.072	106.758	-30.7278	-118.579	76.4612	-28.6444	-124.38	74.9014	5.86173	-140.641	98.8326	-28.4791	-133.108	74.4895	-20.9897	-132.727	78.4343	10.8858	-140.377	117.883	23.2299	-147.831	97.4125	49.9611	-112.078	105.669	43.5126	
47	0.391667	-88.3131	75.1528	30.6496	-85.7773	67.2681	-0.852478	-72.9558	68.0577	-28.2849	-70.6416	71.4835	-48.8659	-81.8586	127.705	-19.3168	-76.3061	123.661	-40.1052	-75.5551	119.622	-68.2747	-104.27	118.352	-25.1746	-104.241	86.1296	-36.1133	-105.06	75.4986	-0.312657	-122.949	106.553	-30.1675	-116.749	79.1516	-26.0209	-120.556	77.6737	9.49593	-138.135	103.888	-22.8042	-131.563	75.8557	-15.245	-129.489	83.1922	16.157	-138.763	117.167	26.8637	-141.214	102.93	51.459	-108.341	108.897	46.3556	
48	0.4	-87.5682	76.8604	34.3972	-83.4968	68.569	1.48642	-70.2321	69.3419	-26.0304	-71.5738	76.7215	-48.4907	-79.7458	129.772	-16.5286	-76.0757	126.133	-41.7948	-75.3457	121.227	-67.3194	-103.694	119.653	-24.653	-98.0277	87.6543	-33.5358	-100.356	78.5772	2.34204	-118.771	110.818	-24.3573	-117.997	78.3496	-22.7185	-114.154	82.9432	12.1028	-136.672	102.301	-23.922	-127.318	77.0728	-11.2282	-126.739	82.8061	16.8578	-137.792	120.78	28.5263	-140.383	104.723	50.8688	-110.253	110.637	47.5731	
49	0.408333	-81.9863	79.1693	31.5072	-80.8573	70.9615	2.41586	-70.9142	72.3935	-23.9578	-66.6593	77.1739	-47.7405	-77.8568	130.961	-18.4254	-72.0596	125.632	-43.6359	-71.6849	120.111	-66.7132	-99.9246	120.927	-25.6355	-99.1057	90.1258	-33.4752	-104.261	80.389	4.01015	-118.744	111.341	-26.4264	-113.369	80.3446	-20.9424	-116.108	81.378	12.482	-134.189	109.47	-18.2581	-124.852	80.8664	-13.305	-126.239	83.8289	21.21	-133.368	124.997	27.9441	-135.632	104.414	53.236	-105.23	112.569	47.1793	
50	0.416667	-83.0816	77.2719	35.2053	-77.9446	70.8758	1.22066	-70.8022	72.0196	-23.5391	-63.6846	74.6672	-46.705	-75.2952	129.543	-13.8228	-74.0584	127.059	-44.1333	-70.5559	120.913	-66.0431	-99.4645	120.345	-24.8203	-98.6548	89.3153	-33.2628	-103.389	79.338	0.901341	-116.779	113.237	-24.4433	-114.936	79.7606	-20.1892	-114.275	84.2441	14.4108	-132.92	105.742	-21.039	-128.069	78.9234	-13.3202	-122.764	82.882	18.2878	-131.901	124.215	29.5857	-137.107	107.949	53.5378	-103.89	114.012	47.0876	
51	0.425	-82.2199	76.4502	34.0885	-75.7662	66.8131	1.42015	-71.5184	70.8392	-24.6266	-64.8277	75.3059	-50.598	-75.9381	130.111	-17.8234	-71.7882	125.686	-44.2481	-72.4872	119.49	-71.096	-97.9581	119.627	-25.3067	-95.0386	90.5529	-35.4338	-102.194	80.6488	5.03289	-113.633	111.97	-25.4089	-110.748	80.7887	-21.1311	-115.061	81.9422	11.1318	-135.626	107.482	-21.4481	-124.893	79.0538	-11.2181	-120.607	86.8914	17.177	-128.58	124.702	27.2703	-137.332	106.776	52.6031	-99.8888	114.532	46.2339	
52	0.433333	-83.981	80.28	31.1965	-78.7632	68.5353	2.41681	-67.6536	71.6971	-30.2345	-66.6373	74.7837	-51.1592	-78.3565	130.036	-18.68	-74.0369	125.839	-45.0241	-74.8039	118.458	-72.074	-99.2912	117.392	-30.6744	-95.5835	88.4517	-35.9582	-96.7985	79.4337	1.4908	-118.982	111.265	-25.8889	-111.427	80.6421	-22.562	-113.605	82.6903	11.8601	-134.474	105.332	-22.0971	-124.598	78.6685	-10.7872	-122.684	86.4539	22.0122	-127.731	124.177	24.6374	-137.443	107.053	54.4829	-98.8055	115.481	43.2524	
53	0.441667	-82.1159	77.636	32.2743	-76.0101	69.9298	-2.73832	-68.2482	70.1834	-30.2452	-68.6284	73.7832	-50.0372	-78.1016	129.852	-18.8879	-73.2829	125.076	-46.7583	-73.0117	119.502	-69.4409	-95.3293	116.884	-30.1229	-96.6352	85.2144	-34.1064	-99.4311	79.3069	1.63522	-113.285	110.135	-27.246	-113.274	80.7487	-23.7705	-110.518	80.069	8.84916	-131.625	106.953	-21.8473	-122.623	79.4584	-12.7619	-120.301	84.3761	18.3998	-131.495	124.555	28.0833	-134.653	108.179	52.7649	-97.3487	115.474	42.6559	
54	0.45	-81.06	80.2907	28.09	-78.827	69.0598	-0.919786	-70.1591	69.0821	-29.4327	-70.0926	72.4173	-50.3855	-78.0495	129.305	-21.0904	-73.2861	124.478	-50.762	-74.1344	119.033	-71.1918	-100.721	117.699	-30.0246	-97.2773	85.0803	-33.4314	-98.3614	79.3235	2.22582	-118.703	110.165	-27.3616	-115.848	78.3778	-21.7513	-111.422	81.5911	9.0943	-131.793	104.431	-23.4295	-124.472	78.9716	-12.8466	-120.561	87.0665	16.9677	-129.966	126.1	25.6581	-136.024	106.494	51.8838	-97.8069	113.255	41.9055	
55	0.458333	-84.2289	78.6936	28.7831	-78.8752	67.3455	-3.7705	-74.6193	68.2439	-28.6724	-67.8273	68.2067	-52.8833	-78.7389	127.685	-20.0487	-74.8415	121.911	-48.8296	-75.4109	116.001	-73.4289	-97.7863	116.502	-29.8055	-96.8163	83.5718	-35.067	-102.255	76.7999	-1.1441	-115.487	111.466	-26.171	-114.863	76.7094	-20.8153	-112.349	80.8422	9.74854	-133.984	105.219	-23.5321	-125.157	79.2448	-14.9224	-123.457	87.6506	20.1386	-126.005	124.107	25.7611	-130.621	108.74	51.2461	-98.4843	113.266	44.9408	
56	0.466667	-82.5792	77.3473	27.5202	-78.985	64.5092	-3.03986	-72.1413	63.9433	-29.4979	-69.2769	64.5576	-50.446	-75.1827	125.013	-23.0409	-71.7636	118.818	-48.7068	-72.9405	112.85	-72.1321	-97.849	113.811	-32.3085	-101.043	81.5099	-34.3688	-103.938	77.6155	1.79604	-116.633	109.541	-26.2967	-116.581	76.2002	-20.6317	-111.028	81.9697	11.085	-133.222	107.532	-20.6128	-127.137	78.7362	-15.3919	-124.127	85.261	19.0955	-127.95	127.171	22.169	-133.526	109.351	53.8053	-95.4906	112.026	40.0457	
57	0.475	-86.1449	74.5758	30.9071	-83.3397	64.2115	-0.0462419	-78.579	65.8449	-29.6357	-75.001	66.4768	-50.3819	-75.1828	121.83	-25.874	-75.4845	117.263	-50.9958	-75.8753	109.641	-75.5895	-99.9204	113.233	-32.506	-102.988	83.5824	-38.3036	-104.042	76.9268	1.55428	-116.254	105.09	-29.6805	-115.711	75.4892	-22.5093	-113.337	78.3828	8.45286	-135.172	105.429	-21.5778	-130.404	75.7084	-11.1842	-125.271	82.2561	19.9879	-128.098	123.752	23.6373	-128.452	109.488	52.6312	-97.5601	111.21	42.2031	
58	0.483333	-84.3345	71.0907	31.3037	-85.9716	62.4329	-0.668361	-79.2102	60.9343	-25.8461	-76.0891	63.9875	-51.3219	-76.2154	120.298	-22.911	-75.5349	115.61	-49.1293	-78.0413	107.761	-78.3355	-100.635	112.914	-29.8788	-104.21	79.3616	-34.3489	-103.871	74.9818	1.64884	-118.482	107.476	-27.3683	-119.422	75.3607	-21.3212	-115.011	77.5639	8.80482	-136.191	104.957	-21.8107	-130.429	77.4673	-12.5997	-124.49	85.2661	20.7592	-122.286	124.831	22.5137	-130.901	109.117	53.1427	-97.5047	111.546	40.9294	
59	0.491667	-87.0402	68.0626	32.0466	-89.3044	60.0497	-0.764804	-82.7731	58.8361	-26.2882	-80.5133	62.7267	-51.1896	-72.744	116.946	-26.3563	-70.6469	110.693	-52.2299	-77.7662	106.983	-73.3352	-100.45	110.437	-32.5925	-104.29	80.7421	-37.3634	-108.931	74.9229	-0.383127	-118.374	104.84	-29.055	-118.646	75.3026	-20.0443	-116.662	81.1057	13.8124	-136.156	107.305	-19.3458	-132.623	77.1787	-8.16391	-126.162	85.9405	17.9964	-126.93	124.892	26.2799	-131.748	111.837	53.294	-93.6015	108.81	41.9809	
60	0.5	-89.5388	67.954	31.6779	-92.6732	60.8318	-0.478501	-84.6143	59.4347	-30.8003	-82.6527	63.3109	-50.5504	-75.3883	116.324	-20.8607	-74.378	112.734	-48.9663	-79.3442	106.6	-78.0259	-96.5166	110.417	-31.3639	-106.865	82.6396	-37.9047	-105.967	73.9285	1.32514	-119.01	107.088	-28.6317	-124.413	76.8708	-20.9429	-117.929	80.2055	10.0007	-134.602	108.227	-19.9105	-136.39	79.8439	-10.8524	-129.318	84.9756	20.4004	-122.186	126.663	22.7608	-130.233	110.789	54.3401	-99.6587	108.863	40.6627	
61	0.508333	-92.9447	69.1946	28.3083	-96.3417	60.2379	-3.362	-89.8052	58.3659	-29.6431	-84.8404	61.4994	-54.3911	-78.8216	118.631	-22.5383	-76.7756	114.614	-51.5567	-77.5689	107.342	-77.1091	-100.093	111.393	-33.634	-111.675	82.8684	-36.6306	-110.824	77.0327	-0.697362	-123.965	110.856	-28.686	-126.276	79.8621	-23.263	-123.957	84.7255	10.9863	-139.996	109.892	-23.4645	-138.323	82.1538	-11.1518	-129.552	89.5716	17.3418	-125.215	129.302	21.1871	-131.817	114.354	49.9265	-96.3607	108.821	42.6603	
62	0.516667	-98.2902	71.0248	27.2804	-100.682	64.4983	-7.85787	-96.2728	62.59	-30.0322	-90.8191	66.8779	-56.4909	-79.8271	120.481	-27.0299	-78.0019	117.094	-51.8091	-84.458	110.233	-80.5829	-103.312	115.502	-33.5813	-112.875	84.5719	-38.8776	-117.977	79.8973	-3.71105	-126.358	112.174	-31.5576	-129.046	83.1087	-26.763	-126.057	87.6049	9.27165	-141.944	114.488	-23.8518	-142.992	85.6241	-13.8456	-134.348	91.6656	18.4016	-126.551	130.414	25.2133	-133.128	115.44	49.7672	-101.508	111.023	39.2819	
63	0.525	-104.732	74.866	24.5531	-106.813	66.9122	-7.98172	-101.623	66.9934	-32.9554	-98.0251	70.9161	-57.8517	-84.6389	122.249	-27.5688	-83.5631	118.766	-56.308	-87.613	112.446	-82.3291	-110.092	118.4	-36.8194	-118.771	90.4495	-42.948	-119.515	82.1089	-6.44515	-129.859	117.962	-30.7886	-134.625	86.3936	-27.4096	-133.008	88.8122	5.63072	-144.802	120.272	-23.6957	-149.492	89.697	-16.8511	-136.494	93.9227	13.8394	-129.98	132.64	22.3035	-142.459	121.22	50.5983	-104.452	115.162	36.7851	
64	0.533333	-111.914	80.0282	21.6248	-114.967	67.6892	-8.44458	-106.31	68.4332	-39.4168	-106.318	73.1592	-59.3164	-90.9007	125.145	-32.1406	-89.489	120.667	-60.0042	-92.1704	114.64	-81.6167	-113.738	121.247	-38.5897	-127.852	91.7954	-43.1095	-128.659	86.1984	-7.04301	-138.376	120.085	-35.7039	-143.741	89.976	-30.5304	-137.489	91.2738	3.57815	-150.243	121.589	-25.692	-154.562	92.5827	-18.4884	-148.591	96.2974	13.4017	-137.182	137.072	20.1326	-146.129	122.413	46.9061	-111.656	115.164	34.0922	
65	0.541667	-118.538	80.9531	18.5991	-120.387	72.4777	-15.5665	-117.084	68.7569	-37.3694	-113.268	73.8523	-62.2324	-97.4205	126.219	-30.3938	-98.6815	122.424	-61.673	-102.83	116.434	-88.3562	-121.661	122.783	-41.342	-137.893	95.0262	-45.8318	-140.477	88.0402	-11.9263	-141.899	119.864	-37.1552	-150.206	91.2451	-30.9182	-147.269	92.9087	1.70861	-158.169	121.205	-29.5505	-164.719	95.263	-19.5868	-150.154	97.7581	9.66918	-144.906	137.612	18.7663	-153.274	128.624	43.4643	-120.596	119.651	32.9677	
66	0.55	-124.813	78.8975	14.7236	-127.837	68.4164	-15.8905	-124.267	68.692	-43.1703	-121.676	71.6369	-67.3213	-104.509	124.489	-33.9957	-105.524	121.117	-63.669	-111.655	114.484	-90.2748	-132.283	123.609	-44.9106	-142.361	95.8769	-52.194	-145.943	88.644	-12.7665	-151.932	120.995	-39.7249	-162.585	92.22	-34.4777	-155.258	90.6725	-3.15194	-168.248	126.697	-30.307	-170.542	97.2637	-23.3176	-164.125	99.7003	8.67664	-149.584	138.609	16.9287	-159.092	126.569	40.454	-125.597	118.517	30.3985	
67	0.558333	-130.714	75.9049	11.2663	-137.25	66.0493	-18.8868	-132.43	64.819	-47.7968	-134.145	73.1342	-71.2405	-115.181	122.317	-39.5991	-115.307	117.174	-66.8579	-121.392	111.819	-92.8661	-141.381	121.348	-45.8627	-155.399	93.3788	-51.798	-156.725	86.7155	-16.5255	-160.059	120.356	-41.6925	-169.591	90.4701	-34.3785	-161.568	91.0314	-3.58297	-176.62	121.767	-34.1573	-179.947	95.0592	-22.1193	-166.475	101.232	6.84925	-155.26	138.529	13.8836	-162.387	124.246	37.2314	-131.273	115.41	25.4855	
